<svg xmlns="http://www.w3.org/2000/svg" xmlns:xlink="http://www.w3.org/1999/xlink" width="230" zoomAndPan="magnify" viewBox="0 0 172.5 157.5" height="210" preserveAspectRatio="xMidYMid meet" version="1.0"><defs><clipPath id="id1"><path d="M 1.367188 0.00390625 L 170.820312 0.00390625 L 170.820312 157 L 1.367188 157 Z M 1.367188 0.00390625 " clip-rule="nonzero"/></clipPath></defs><g clip-path="url(#id1)"><path fill="#fcbf49" d="M 92.863281 11.753906 C 92.800781 11.773438 92.761719 11.835938 92.777344 11.898438 C 92.792969 11.964844 92.855469 12.003906 92.917969 11.992188 C 92.917969 11.992188 92.921875 11.988281 92.921875 11.988281 C 94.003906 11.761719 95.574219 11.457031 97.371094 11.339844 C 98.769531 11.25 100.308594 11.273438 101.851562 11.542969 C 104.4375 11.988281 109.023438 13.058594 111.316406 18.160156 C 112.3125 20.371094 112.089844 22.03125 112.492188 23.617188 C 114.101562 29.914062 122.390625 40.449219 129.050781 47.355469 C 132.597656 51.027344 135.910156 53.84375 139 56.121094 C 144.707031 60.324219 150.300781 63.15625 154.789062 65.683594 C 157.839844 67.398438 160.390625 68.980469 162.140625 70.734375 C 168.808594 77.414062 170.925781 83.429688 170.816406 87.480469 C 170.757812 89.769531 169.886719 91.9375 167.933594 93.132812 C 164.996094 94.933594 160.855469 95.496094 157.710938 97.125 C 156.757812 97.636719 156.070312 98.121094 155.617188 98.601562 C 155.03125 99.222656 154.785156 99.816406 154.730469 100.328125 C 154.707031 100.539062 154.609375 100.6875 154.480469 100.792969 C 154.316406 100.925781 154 101.019531 153.542969 100.84375 C 152.339844 100.375 149.035156 97.636719 145.011719 93.03125 C 142.574219 90.238281 139.9375 86.78125 137.324219 82.46875 C 133.089844 75.710938 127.011719 60.398438 120.402344 49.664062 C 119.671875 48.476562 118.9375 47.347656 118.195312 46.292969 C 118.128906 46.199219 117.996094 46.175781 117.898438 46.238281 C 117.804688 46.308594 117.777344 46.4375 117.839844 46.535156 C 118.519531 47.617188 119.195312 48.773438 119.859375 49.980469 C 123.199219 56.046875 126.308594 63.484375 129.113281 70.097656 C 131.4375 75.578125 133.5625 80.488281 135.355469 83.636719 C 137.996094 88.140625 140.613281 91.800781 143.15625 94.667969 C 145.679688 97.507812 148.644531 100.136719 152.886719 102.101562 C 156.085938 103.585938 158.792969 103.277344 160.804688 103.113281 C 161.53125 103.054688 162.171875 103.011719 162.71875 103.0625 C 163.367188 103.121094 163.894531 103.304688 164.3125 103.667969 C 165.035156 104.304688 165.570312 105.644531 164.40625 106.703125 C 163.546875 107.484375 161.800781 108.054688 158.664062 108.179688 C 154.585938 108.359375 151.621094 108.757812 149.53125 109.351562 C 148.777344 109.566406 148.128906 109.792969 147.601562 110.074219 C 146.664062 110.570312 145.632812 110.332031 144.589844 109.53125 C 142.554688 107.972656 140.382812 104.179688 138.722656 101.40625 C 137.371094 99.152344 135.988281 96.515625 134.46875 93.335938 C 134.417969 93.230469 134.292969 93.1875 134.183594 93.234375 C 134.078125 93.28125 134.027344 93.40625 134.070312 93.515625 C 135.390625 96.8125 136.601562 99.554688 137.804688 101.917969 C 143.015625 112.167969 148.078125 117.019531 149.703125 118.722656 C 149.945312 118.980469 150.191406 119.207031 150.367188 119.449219 C 150.53125 119.667969 150.636719 119.902344 150.675781 120.160156 C 150.773438 120.863281 150.292969 121.65625 149.128906 122.203125 C 148.210938 122.636719 146.863281 122.894531 145.035156 122.851562 C 142.746094 122.777344 137.507812 123.789062 132.980469 125.03125 C 130.652344 125.667969 128.515625 126.410156 127.003906 127.105469 C 126.488281 127.34375 126.125 127.285156 125.871094 127.109375 C 125.652344 126.953125 125.46875 126.640625 125.398438 126.109375 C 125.335938 125.648438 125.332031 124.964844 125.332031 124.046875 C 125.332031 122.636719 125.195312 121.226562 125.066406 119.816406 C 124.574219 114.484375 123.621094 109.171875 122.707031 104.035156 C 120.167969 90.3125 116.53125 76.785156 112.089844 63.511719 C 110.980469 60.207031 109.824219 56.914062 108.625 53.640625 C 108.585938 53.527344 108.460938 53.46875 108.351562 53.507812 C 108.238281 53.550781 108.179688 53.671875 108.21875 53.785156 C 109.355469 57.078125 110.457031 60.382812 111.511719 63.703125 C 115.742188 77 119.261719 90.515625 121.636719 104.222656 C 122.40625 108.496094 123.144531 112.886719 123.707031 117.304688 C 123.929688 119.046875 124.089844 120.800781 124.285156 122.542969 C 124.894531 127.921875 125.367188 132.613281 121.207031 137.902344 C 120.480469 138.828125 119.632812 139.6875 118.699219 140.460938 C 116.664062 142.144531 114.175781 143.382812 111.332031 143.945312 C 110.414062 144.128906 109.347656 144.167969 108.257812 144.175781 C 106.597656 144.191406 104.886719 144.09375 103.550781 143.992188 C 103.003906 144 102.363281 144.042969 101.726562 144.214844 C 100.875 144.445312 100.023438 144.792969 99.363281 145.292969 C 99.210938 145.410156 99.003906 145.433594 98.832031 145.351562 C 98.65625 145.269531 98.539062 145.097656 98.53125 144.90625 C 98.511719 144.53125 98.492188 144.144531 98.46875 143.75 C 98.367188 141.980469 98.191406 140.011719 98.003906 137.882812 C 97.175781 128.597656 95.90625 116.207031 94.519531 103.640625 C 93.789062 97.03125 92.992188 90.378906 92.203125 84.105469 C 91.484375 78.390625 90.765625 72.996094 90.09375 68.234375 C 90.074219 68.117188 89.96875 68.035156 89.851562 68.050781 C 89.734375 68.066406 89.652344 68.171875 89.664062 68.289062 C 90.503906 77.03125 91.421875 87.898438 92.375 98.914062 C 93.023438 106.398438 93.707031 113.945312 94.34375 120.945312 C 95.125 129.46875 95.71875 137.1875 96.414062 142.957031 C 96.890625 146.921875 97.066406 149.429688 96.972656 151.105469 C 96.898438 152.472656 96.640625 153.324219 96.246094 153.949219 C 95.84375 154.582031 95.296875 154.996094 94.59375 155.457031 C 93.132812 156.414062 89.253906 157.667969 87.523438 157.417969 C 85.714844 157.15625 83.164062 156.429688 81.460938 155.621094 C 77.070312 153.535156 74.773438 152.097656 73.253906 150.175781 C 72.144531 148.773438 71.441406 147.113281 70.660156 144.742188 C 69.761719 142 69.035156 138.539062 68.367188 134.617188 C 67.082031 127.078125 66.132812 117.824219 66.140625 108.515625 C 66.042969 102.578125 66.3125 95.769531 66.644531 89.113281 C 67 81.949219 67.464844 74.972656 67.8125 69.460938 C 67.820312 69.34375 67.730469 69.242188 67.617188 69.230469 C 67.5 69.222656 67.394531 69.304688 67.382812 69.421875 C 66.683594 74.90625 65.796875 81.851562 65.078125 88.996094 C 64.40625 95.675781 63.917969 102.523438 63.773438 108.496094 C 63.707031 117.976562 64.378906 127.4375 65.882812 135.074219 C 66.679688 139.117188 67.40625 141.53125 68.53125 144.300781 C 69.15625 145.835938 69.296875 146.554688 69.273438 146.867188 C 69.25 147.171875 69.121094 147.328125 69 147.421875 C 68.851562 147.535156 68.667969 147.578125 68.46875 147.550781 C 67.074219 147.351562 65.648438 147.460938 64.230469 147.578125 C 61.390625 147.839844 58.613281 148.429688 55.789062 148.816406 C 54.597656 148.980469 53.40625 149.101562 52.195312 149.152344 C 51.289062 149.1875 50.117188 149.246094 49.039062 149.074219 C 48.523438 148.988281 48.019531 148.878906 47.605469 148.644531 C 47.410156 148.535156 47.25 148.382812 47.089844 148.222656 C 46.585938 147.695312 46.65625 147.148438 46.902344 146.652344 C 47.148438 146.160156 47.660156 145.753906 48.15625 145.460938 C 48.9375 145 50.296875 144.542969 51.589844 143.886719 C 52.613281 143.367188 53.472656 142.683594 53.960938 141.957031 C 54.027344 141.855469 54.09375 141.753906 54.136719 141.640625 C 54.292969 141.191406 54.355469 140.695312 54.226562 140.199219 C 53.878906 138.867188 52.886719 135.269531 52.886719 120.898438 C 52.886719 116.714844 53.183594 112.546875 53.429688 108.421875 C 54.027344 98.304688 55 88.453125 56.171875 79.402344 C 57.078125 72.375 58.085938 65.824219 59.054688 60.003906 C 59.074219 59.886719 58.996094 59.773438 58.878906 59.753906 C 58.761719 59.730469 58.648438 59.808594 58.628906 59.925781 C 57.066406 67.949219 55.410156 77.367188 54.039062 87.539062 C 53.039062 94.980469 52.164062 102.824219 51.65625 110.816406 C 51.445312 114.140625 51.324219 117.492188 51.242188 120.84375 C 51.167969 124.640625 51.007812 128.605469 51.199219 132.511719 C 51.289062 134.398438 51.464844 136.269531 51.761719 138.105469 C 51.792969 138.285156 51.726562 138.464844 51.589844 138.582031 C 51.457031 138.703125 51.269531 138.742188 51.09375 138.6875 C 49.648438 138.238281 48.054688 138.300781 46.386719 138.683594 C 45.222656 138.953125 44.035156 139.390625 42.824219 139.832031 C 39.941406 140.875 36.996094 142.101562 34.644531 142.621094 C 34.070312 142.746094 32.65625 143.085938 31.269531 143.160156 C 31.007812 143.171875 30.488281 143.222656 30.007812 143.113281 C 29.597656 143.019531 29.21875 142.816406 28.976562 142.445312 C 28.742188 142.089844 28.613281 141.554688 28.808594 140.742188 C 28.957031 140.109375 29.0625 139.464844 29.1875 138.828125 C 31.992188 124.320312 34.195312 109.726562 37.089844 95.242188 C 38.464844 88.363281 39.980469 81.507812 41.785156 74.699219 C 44.136719 65.722656 47.164062 56.886719 50.535156 48.179688 C 50.535156 48.175781 50.535156 48.175781 50.535156 48.175781 C 50.582031 48.066406 50.527344 47.941406 50.417969 47.894531 C 50.308594 47.851562 50.183594 47.90625 50.140625 48.015625 C 50.140625 48.015625 50.136719 48.019531 50.136719 48.019531 C 46.632812 56.699219 43.59375 65.558594 41.171875 74.535156 C 38.742188 83.632812 36.804688 92.804688 35.074219 102.011719 C 33.351562 111.160156 31.800781 120.335938 30.171875 129.5 C 30.136719 129.699219 29.988281 129.859375 29.792969 129.914062 C 29.1875 130.074219 27.675781 128.648438 26.371094 127.84375 C 23.921875 126.328125 19.519531 124.238281 17.824219 123.539062 C 13.546875 121.777344 8.289062 119.367188 4.851562 116.996094 C 3.515625 116.074219 2.460938 115.160156 1.859375 114.296875 C 1.320312 113.523438 1.179688 112.800781 1.664062 112.167969 C 6.070312 106.246094 9.359375 100.441406 12.117188 94.5 C 18.261719 81.253906 21.828125 67.375 29.96875 50.203125 C 33.269531 43.242188 37.316406 35.730469 42.589844 27.492188 C 43.640625 25.851562 43.90625 24.390625 44.066406 22.992188 C 44.242188 21.472656 44.308594 20.015625 44.976562 18.480469 C 45.75 16.703125 47.023438 15.175781 48.535156 14.003906 C 50.128906 12.761719 51.980469 11.90625 53.769531 11.554688 C 55.3125 11.257812 56.851562 11.203125 58.257812 11.273438 C 58.800781 11.304688 59.324219 11.351562 59.820312 11.410156 C 59.851562 11.414062 59.882812 11.390625 59.886719 11.359375 C 59.894531 11.328125 59.875 11.296875 59.84375 11.289062 C 58.941406 11.046875 58.300781 10.789062 58.023438 10.515625 C 57.867188 10.359375 57.828125 10.203125 57.828125 10.074219 C 57.828125 9.898438 57.890625 9.726562 58.078125 9.589844 C 58.179688 9.515625 58.382812 9.4375 58.660156 9.410156 C 59.050781 9.371094 59.65625 9.398438 60.089844 9.464844 C 60.183594 9.480469 60.304688 9.496094 60.445312 9.519531 C 60.546875 9.535156 60.648438 9.472656 60.683594 9.375 C 60.714844 9.273438 60.671875 9.160156 60.578125 9.113281 C 60.027344 8.839844 59.71875 8.664062 59.484375 8.503906 C 59.382812 8.433594 59.25 8.316406 59.175781 8.199219 C 59.105469 8.085938 59.070312 7.964844 59.066406 7.851562 C 59.0625 7.640625 59.128906 7.332031 59.625 7.179688 C 60.214844 6.996094 60.992188 6.929688 61.527344 7.066406 C 61.972656 7.140625 62.300781 7.25 62.625 7.429688 C 63.21875 7.765625 63.804688 8.269531 65.109375 8.957031 L 65.128906 8.96875 C 65.246094 9.039062 65.382812 9.121094 65.53125 9.207031 C 65.621094 9.265625 65.742188 9.242188 65.808594 9.160156 C 65.875 9.074219 65.871094 8.953125 65.800781 8.875 C 64.648438 7.625 62.957031 5.78125 62.957031 5.78125 C 62.234375 4.960938 61.179688 3.613281 62.957031 1.835938 C 64.730469 0.0585938 70.773438 0.109375 77.8125 0.0117188 C 84.429688 -0.078125 89.398438 0.769531 91.132812 1.835938 C 91.886719 2.296875 92.328125 2.847656 92.53125 3.445312 C 92.648438 3.789062 92.6875 4.152344 92.652344 4.535156 C 92.609375 5.058594 92.28125 5.9375 91.988281 6.449219 C 91.738281 6.890625 91.394531 7.339844 91.015625 7.773438 C 90.992188 7.796875 90.992188 7.839844 91.015625 7.867188 C 91.039062 7.890625 91.082031 7.894531 91.109375 7.871094 C 91.910156 7.242188 92.710938 6.789062 93.21875 6.519531 C 94.109375 6.050781 94.699219 6.03125 95.015625 6.089844 C 95.273438 6.136719 95.429688 6.246094 95.507812 6.324219 C 95.734375 6.550781 95.808594 6.9375 95.703125 7.324219 C 95.667969 7.441406 95.554688 7.636719 95.304688 7.847656 C 95.003906 8.105469 94.433594 8.488281 93.695312 8.960938 C 93.605469 9.019531 93.574219 9.140625 93.621094 9.234375 C 93.667969 9.332031 93.777344 9.382812 93.882812 9.347656 C 94.671875 9.078125 95.273438 8.910156 95.554688 8.855469 C 96.917969 8.582031 97.300781 8.902344 97.65625 9.234375 C 97.851562 9.414062 97.898438 9.609375 97.886719 9.785156 C 97.878906 9.945312 97.8125 10.117188 97.644531 10.269531 C 97.496094 10.410156 97.203125 10.5625 96.820312 10.691406 C 96.136719 10.925781 95.128906 11.132812 94.542969 11.308594 C 94.429688 11.34375 93.710938 11.535156 92.863281 11.753906 Z M 159.484375 98 C 159.324219 97.792969 159.035156 97.742188 158.808594 97.875 C 158.640625 97.972656 158.472656 98.078125 158.3125 98.183594 C 157.6875 98.574219 157.21875 98.960938 156.847656 99.300781 C 156.523438 99.597656 156.277344 99.851562 156.132812 100.105469 C 155.558594 101.085938 156.382812 101.804688 156.886719 102.035156 C 157.511719 102.332031 158.207031 102.503906 158.921875 102.585938 C 160.050781 102.71875 161.207031 102.707031 162.214844 102.769531 C 162.417969 102.785156 162.613281 102.675781 162.707031 102.492188 C 162.804688 102.3125 162.78125 102.089844 162.65625 101.929688 C 161.9375 101.011719 160.824219 99.699219 159.484375 98 Z M 84.484375 12.121094 C 84.449219 12.167969 84.457031 12.230469 84.5 12.265625 C 84.542969 12.304688 84.605469 12.300781 84.644531 12.253906 C 84.65625 12.238281 84.671875 12.222656 84.683594 12.207031 C 85.34375 11.292969 89.929688 7.355469 90.335938 6.324219 C 90.886719 4.929688 90.183594 3.640625 88.203125 3.28125 C 86.222656 2.921875 82.019531 2.714844 77.8125 2.714844 C 74.304688 2.714844 70.792969 2.851562 68.582031 3.109375 C 65.96875 3.414062 64.527344 4.535156 65.246094 6.324219 C 65.753906 7.589844 69.222656 10.324219 70.949219 12.058594 C 70.996094 12.105469 71.078125 12.105469 71.125 12.054688 C 71.175781 12.007812 71.175781 11.929688 71.128906 11.878906 C 69.5 10.1875 68.1875 8.832031 67.648438 8.285156 C 66.835938 7.460938 66.195312 6.8125 65.96875 6.222656 C 65.792969 5.75 65.9375 5.328125 66.511719 4.867188 C 66.613281 4.78125 66.785156 4.699219 67.027344 4.644531 C 67.371094 4.5625 67.925781 4.511719 68.632812 4.4375 C 70.835938 4.207031 74.324219 4.101562 77.8125 4.101562 C 81.304688 4.097656 84.792969 4.199219 86.996094 4.433594 C 87.703125 4.507812 88.261719 4.5625 88.605469 4.644531 C 88.84375 4.703125 89.015625 4.785156 89.117188 4.871094 C 89.679688 5.332031 89.824219 5.75 89.644531 6.21875 C 89.417969 6.808594 88.769531 7.449219 87.957031 8.265625 C 86.542969 9.6875 85.171875 11.292969 84.484375 12.121094 " fill-opacity="1" fill-rule="evenodd"/></g></svg>