<svg xmlns="http://www.w3.org/2000/svg" xmlns:xlink="http://www.w3.org/1999/xlink" width="300" zoomAndPan="magnify" viewBox="0 0 224.87999 157.5" height="210" preserveAspectRatio="xMidYMid meet" version="1.0"><defs><g/><clipPath id="id1"><path d="M 27.804688 0.00390625 L 196.765625 0.00390625 L 196.765625 156.996094 L 27.804688 156.996094 Z M 27.804688 0.00390625 " clip-rule="nonzero"/></clipPath><clipPath id="id2"><path d="M 0.296875 33 L 22 33 L 22 59 L 0.296875 59 Z M 0.296875 33 " clip-rule="nonzero"/></clipPath><clipPath id="id3"><path d="M 200 33 L 224.464844 33 L 224.464844 59 L 200 59 Z M 200 33 " clip-rule="nonzero"/></clipPath></defs><g clip-path="url(#id1)"><path fill="#fcbf49" d="M 119.035156 11.722656 C 118.972656 11.738281 118.933594 11.800781 118.949219 11.867188 C 118.964844 11.929688 119.027344 11.96875 119.089844 11.957031 C 119.089844 11.957031 119.089844 11.953125 119.089844 11.953125 C 120.171875 11.726562 121.738281 11.421875 123.527344 11.308594 C 124.925781 11.21875 126.457031 11.242188 128 11.507812 C 130.574219 11.953125 135.148438 13.019531 137.4375 18.109375 C 138.425781 20.3125 138.203125 21.964844 138.609375 23.546875 C 140.210938 29.828125 148.472656 40.332031 155.117188 47.21875 C 158.652344 50.878906 161.957031 53.6875 165.039062 55.957031 C 170.726562 60.148438 176.304688 62.972656 180.78125 65.492188 C 183.824219 67.203125 186.363281 68.78125 188.113281 70.53125 C 194.757812 77.1875 196.871094 83.1875 196.765625 87.230469 C 196.703125 89.511719 195.832031 91.671875 193.890625 92.863281 C 190.957031 94.660156 186.828125 95.21875 183.691406 96.84375 C 182.742188 97.355469 182.058594 97.835938 181.609375 98.316406 C 181.019531 98.933594 180.777344 99.527344 180.71875 100.035156 C 180.699219 100.246094 180.601562 100.394531 180.476562 100.5 C 180.3125 100.632812 179.992188 100.726562 179.539062 100.550781 C 178.339844 100.085938 175.042969 97.355469 171.03125 92.761719 C 168.601562 89.976562 165.972656 86.53125 163.367188 82.230469 C 159.144531 75.488281 153.085938 60.222656 146.492188 49.519531 C 145.765625 48.339844 145.03125 47.210938 144.292969 46.160156 C 144.226562 46.0625 144.09375 46.042969 144 46.105469 C 143.902344 46.171875 143.875 46.304688 143.9375 46.402344 C 144.617188 47.480469 145.289062 48.632812 145.953125 49.835938 C 149.28125 55.886719 152.382812 63.300781 155.179688 69.894531 C 157.496094 75.359375 159.617188 80.253906 161.40625 83.394531 C 164.039062 87.882812 166.644531 91.539062 169.183594 94.394531 C 171.695312 97.226562 174.65625 99.84375 178.882812 101.808594 C 182.074219 103.285156 184.773438 102.976562 186.777344 102.8125 C 187.5 102.753906 188.140625 102.714844 188.6875 102.765625 C 189.332031 102.824219 189.859375 103.003906 190.277344 103.371094 C 191 104 191.53125 105.335938 190.371094 106.394531 C 189.511719 107.175781 187.769531 107.742188 184.644531 107.867188 C 180.578125 108.042969 177.621094 108.441406 175.539062 109.035156 C 174.789062 109.25 174.140625 109.476562 173.613281 109.753906 C 172.679688 110.253906 171.652344 110.011719 170.609375 109.214844 C 168.582031 107.660156 166.417969 103.878906 164.761719 101.113281 C 163.410156 98.863281 162.03125 96.238281 160.519531 93.066406 C 160.46875 92.964844 160.34375 92.917969 160.238281 92.964844 C 160.128906 93.011719 160.078125 93.136719 160.125 93.246094 C 161.4375 96.535156 162.648438 99.265625 163.847656 101.621094 C 169.042969 111.84375 174.089844 116.683594 175.707031 118.378906 C 175.953125 118.636719 176.199219 118.863281 176.375 119.105469 C 176.535156 119.324219 176.640625 119.554688 176.679688 119.8125 C 176.777344 120.515625 176.296875 121.304688 175.136719 121.851562 C 174.222656 122.28125 172.878906 122.539062 171.054688 122.496094 C 168.773438 122.421875 163.550781 123.429688 159.035156 124.667969 C 156.710938 125.304688 154.585938 126.042969 153.074219 126.738281 C 152.5625 126.976562 152.199219 126.917969 151.945312 126.742188 C 151.730469 126.585938 151.542969 126.273438 151.472656 125.742188 C 151.410156 125.285156 151.410156 124.605469 151.410156 123.691406 C 151.410156 122.285156 151.273438 120.875 151.144531 119.46875 C 150.652344 114.152344 149.703125 108.859375 148.789062 103.734375 C 146.257812 90.050781 142.632812 76.5625 138.203125 63.328125 C 137.101562 60.03125 135.945312 56.75 134.75 53.484375 C 134.710938 53.375 134.585938 53.316406 134.476562 53.355469 C 134.363281 53.394531 134.304688 53.515625 134.34375 53.628906 C 135.480469 56.910156 136.574219 60.207031 137.628906 63.515625 C 141.84375 76.777344 145.355469 90.253906 147.726562 103.921875 C 148.488281 108.179688 149.226562 112.5625 149.789062 116.964844 C 150.011719 118.703125 150.171875 120.453125 150.367188 122.1875 C 150.972656 127.550781 151.445312 132.230469 147.296875 137.503906 C 146.570312 138.425781 145.726562 139.285156 144.796875 140.054688 C 142.769531 141.734375 140.285156 142.96875 137.449219 143.53125 C 136.53125 143.710938 135.472656 143.75 134.386719 143.761719 C 132.730469 143.773438 131.023438 143.675781 129.691406 143.578125 C 129.144531 143.582031 128.507812 143.625 127.871094 143.796875 C 127.023438 144.027344 126.171875 144.375 125.515625 144.875 C 125.363281 144.992188 125.160156 145.011719 124.984375 144.933594 C 124.808594 144.851562 124.695312 144.679688 124.683594 144.488281 C 124.667969 144.113281 124.644531 143.726562 124.625 143.332031 C 124.523438 141.570312 124.347656 139.609375 124.160156 137.484375 C 123.332031 128.226562 122.070312 115.871094 120.6875 103.339844 C 119.957031 96.75 119.160156 90.117188 118.375 83.859375 C 117.660156 78.164062 116.945312 72.785156 116.273438 68.039062 C 116.253906 67.921875 116.148438 67.839844 116.03125 67.855469 C 115.914062 67.867188 115.832031 67.972656 115.84375 68.089844 C 116.679688 76.808594 117.597656 87.644531 118.546875 98.628906 C 119.191406 106.089844 119.875 113.617188 120.511719 120.597656 C 121.289062 129.09375 121.882812 136.792969 122.574219 142.542969 C 123.046875 146.496094 123.222656 149 123.132812 150.671875 C 123.058594 152.03125 122.800781 152.878906 122.40625 153.503906 C 122.007812 154.136719 121.460938 154.546875 120.761719 155.007812 C 119.300781 155.960938 115.4375 157.210938 113.710938 156.960938 C 111.90625 156.703125 109.363281 155.980469 107.667969 155.171875 C 103.285156 153.09375 100.996094 151.65625 99.480469 149.742188 C 98.375 148.34375 97.671875 146.6875 96.898438 144.324219 C 96 141.589844 95.277344 138.140625 94.609375 134.226562 C 93.328125 126.710938 92.378906 117.484375 92.390625 108.203125 C 92.289062 102.28125 92.558594 95.492188 92.890625 88.855469 C 93.246094 81.714844 93.710938 74.757812 94.054688 69.257812 C 94.0625 69.140625 93.976562 69.042969 93.859375 69.03125 C 93.742188 69.019531 93.640625 69.105469 93.625 69.222656 C 92.929688 74.691406 92.046875 81.617188 91.328125 88.738281 C 90.660156 95.398438 90.171875 102.226562 90.027344 108.183594 C 89.960938 117.636719 90.632812 127.070312 92.132812 134.683594 C 92.925781 138.71875 93.648438 141.125 94.773438 143.882812 C 95.398438 145.414062 95.535156 146.132812 95.511719 146.445312 C 95.488281 146.746094 95.359375 146.902344 95.242188 146.996094 C 95.09375 147.109375 94.910156 147.152344 94.710938 147.125 C 93.320312 146.925781 91.894531 147.035156 90.484375 147.152344 C 87.652344 147.414062 84.882812 148 82.066406 148.386719 C 80.878906 148.550781 79.691406 148.667969 78.484375 148.722656 C 77.582031 148.753906 76.410156 148.816406 75.335938 148.640625 C 74.824219 148.558594 74.320312 148.449219 73.90625 148.214844 C 73.710938 148.105469 73.554688 147.953125 73.394531 147.792969 C 72.890625 147.269531 72.960938 146.722656 73.207031 146.230469 C 73.449219 145.738281 73.960938 145.332031 74.457031 145.039062 C 75.238281 144.582031 76.59375 144.125 77.882812 143.46875 C 78.902344 142.949219 79.757812 142.273438 80.242188 141.546875 C 80.3125 141.445312 80.378906 141.34375 80.417969 141.230469 C 80.574219 140.78125 80.636719 140.289062 80.511719 139.796875 C 80.164062 138.464844 79.171875 134.875 79.171875 120.550781 C 79.171875 116.378906 79.46875 112.222656 79.714844 108.109375 C 80.3125 98.019531 81.28125 88.199219 82.445312 79.171875 C 83.351562 72.164062 84.355469 65.632812 85.324219 59.828125 C 85.34375 59.710938 85.265625 59.601562 85.148438 59.582031 C 85.03125 59.558594 84.921875 59.636719 84.898438 59.753906 C 83.339844 67.753906 81.6875 77.144531 80.324219 87.285156 C 79.324219 94.707031 78.453125 102.527344 77.949219 110.496094 C 77.738281 113.8125 77.613281 117.152344 77.535156 120.496094 C 77.460938 124.28125 77.300781 128.234375 77.488281 132.128906 C 77.582031 134.007812 77.753906 135.875 78.054688 137.707031 C 78.082031 137.882812 78.015625 138.0625 77.882812 138.183594 C 77.746094 138.300781 77.558594 138.339844 77.386719 138.285156 C 75.945312 137.835938 74.355469 137.902344 72.691406 138.285156 C 71.53125 138.550781 70.347656 138.988281 69.140625 139.425781 C 66.265625 140.46875 63.328125 141.691406 60.984375 142.210938 C 60.414062 142.332031 59.003906 142.671875 57.617188 142.746094 C 57.359375 142.757812 56.839844 142.808594 56.359375 142.699219 C 55.949219 142.605469 55.574219 142.402344 55.332031 142.035156 C 55.097656 141.679688 54.96875 141.144531 55.164062 140.335938 C 55.3125 139.703125 55.417969 139.0625 55.539062 138.425781 C 58.335938 123.960938 60.535156 109.410156 63.421875 94.964844 C 64.792969 88.109375 66.304688 81.273438 68.101562 74.484375 C 70.445312 65.535156 73.46875 56.722656 76.828125 48.039062 C 76.828125 48.039062 76.828125 48.035156 76.828125 48.035156 C 76.875 47.925781 76.820312 47.800781 76.710938 47.757812 C 76.601562 47.714844 76.476562 47.765625 76.433594 47.875 C 76.433594 47.878906 76.433594 47.878906 76.429688 47.882812 C 72.9375 56.535156 69.90625 65.367188 67.492188 74.320312 C 65.070312 83.390625 63.136719 92.539062 61.410156 101.71875 C 59.695312 110.839844 58.148438 119.988281 56.523438 129.125 C 56.488281 129.324219 56.34375 129.484375 56.148438 129.535156 C 55.539062 129.699219 54.035156 128.277344 52.734375 127.472656 C 50.289062 125.964844 45.902344 123.878906 44.210938 123.183594 C 39.945312 121.425781 34.707031 119.019531 31.277344 116.660156 C 29.945312 115.738281 28.890625 114.828125 28.292969 113.964844 C 27.757812 113.195312 27.617188 112.472656 28.097656 111.84375 C 32.492188 105.9375 35.773438 100.152344 38.519531 94.226562 C 44.648438 81.019531 48.207031 67.179688 56.320312 50.058594 C 59.613281 43.117188 63.648438 35.625 68.902344 27.414062 C 69.953125 25.777344 70.21875 24.320312 70.378906 22.925781 C 70.554688 21.410156 70.621094 19.957031 71.289062 18.425781 C 72.058594 16.65625 73.328125 15.132812 74.832031 13.960938 C 76.421875 12.722656 78.269531 11.871094 80.050781 11.519531 C 81.589844 11.226562 83.125 11.167969 84.527344 11.242188 C 85.070312 11.269531 85.59375 11.316406 86.085938 11.375 C 86.117188 11.378906 86.148438 11.359375 86.152344 11.328125 C 86.160156 11.296875 86.140625 11.265625 86.109375 11.257812 C 85.210938 11.015625 84.570312 10.757812 84.292969 10.484375 C 84.136719 10.328125 84.101562 10.171875 84.101562 10.046875 C 84.097656 9.871094 84.164062 9.699219 84.347656 9.5625 C 84.449219 9.488281 84.652344 9.410156 84.929688 9.382812 C 85.320312 9.34375 85.921875 9.371094 86.355469 9.4375 C 86.449219 9.453125 86.570312 9.46875 86.707031 9.492188 C 86.8125 9.507812 86.914062 9.445312 86.945312 9.347656 C 86.980469 9.246094 86.9375 9.136719 86.84375 9.085938 C 86.292969 8.816406 85.984375 8.640625 85.75 8.476562 C 85.648438 8.40625 85.519531 8.292969 85.445312 8.175781 C 85.375 8.0625 85.339844 7.941406 85.335938 7.828125 C 85.332031 7.621094 85.394531 7.3125 85.890625 7.15625 C 86.480469 6.976562 87.253906 6.910156 87.785156 7.046875 C 88.234375 7.117188 88.558594 7.230469 88.882812 7.410156 C 89.476562 7.742188 90.058594 8.246094 91.359375 8.933594 L 91.378906 8.941406 C 91.496094 9.011719 91.632812 9.09375 91.78125 9.183594 C 91.871094 9.238281 91.992188 9.214844 92.058594 9.132812 C 92.125 9.046875 92.121094 8.929688 92.050781 8.847656 C 90.902344 7.601562 89.210938 5.761719 89.210938 5.761719 C 88.492188 4.949219 87.441406 3.605469 89.210938 1.832031 C 90.984375 0.0585938 97.011719 0.109375 104.027344 0.0117188 C 110.625 -0.078125 115.578125 0.769531 117.308594 1.832031 C 118.058594 2.292969 118.5 2.839844 118.703125 3.4375 C 118.820312 3.777344 118.859375 4.140625 118.824219 4.523438 C 118.777344 5.042969 118.453125 5.921875 118.160156 6.433594 C 117.914062 6.871094 117.570312 7.316406 117.191406 7.75 C 117.167969 7.777344 117.167969 7.816406 117.191406 7.84375 C 117.21875 7.867188 117.257812 7.871094 117.285156 7.847656 C 117.285156 7.851562 117.285156 7.847656 117.285156 7.847656 C 118.082031 7.222656 118.878906 6.769531 119.390625 6.5 C 120.277344 6.035156 120.867188 6.015625 121.179688 6.070312 C 121.4375 6.117188 121.59375 6.226562 121.667969 6.304688 C 121.898438 6.53125 121.972656 6.917969 121.867188 7.304688 C 121.832031 7.417969 121.714844 7.613281 121.46875 7.824219 C 121.167969 8.082031 120.601562 8.464844 119.863281 8.9375 C 119.773438 8.996094 119.742188 9.113281 119.789062 9.210938 C 119.835938 9.308594 119.945312 9.355469 120.050781 9.320312 C 120.835938 9.050781 121.4375 8.882812 121.714844 8.828125 C 123.078125 8.558594 123.460938 8.878906 123.8125 9.207031 C 124.007812 9.386719 124.054688 9.582031 124.046875 9.757812 C 124.035156 9.917969 123.96875 10.085938 123.800781 10.242188 C 123.652344 10.378906 123.359375 10.53125 122.980469 10.660156 C 122.300781 10.890625 121.296875 11.101562 120.707031 11.277344 C 120.597656 11.3125 119.878906 11.5 119.035156 11.722656 Z M 185.464844 97.714844 C 185.300781 97.511719 185.015625 97.457031 184.789062 97.589844 C 184.621094 97.691406 184.457031 97.792969 184.292969 97.898438 C 183.667969 98.289062 183.207031 98.675781 182.835938 99.011719 C 182.511719 99.308594 182.265625 99.5625 182.117188 99.816406 C 181.550781 100.792969 182.371094 101.507812 182.871094 101.742188 C 183.496094 102.035156 184.1875 102.207031 184.902344 102.289062 C 186.027344 102.421875 187.179688 102.410156 188.183594 102.472656 C 188.386719 102.488281 188.582031 102.378906 188.675781 102.195312 C 188.773438 102.015625 188.75 101.796875 188.625 101.632812 C 187.910156 100.71875 186.800781 99.410156 185.464844 97.714844 Z M 110.679688 12.085938 C 110.644531 12.132812 110.652344 12.195312 110.695312 12.230469 C 110.738281 12.269531 110.800781 12.261719 110.839844 12.21875 C 110.851562 12.203125 110.863281 12.1875 110.875 12.171875 C 111.539062 11.261719 116.105469 7.332031 116.515625 6.304688 C 117.0625 4.917969 116.363281 3.628906 114.386719 3.269531 C 112.414062 2.914062 108.222656 2.707031 104.027344 2.707031 C 100.527344 2.707031 97.027344 2.84375 94.820312 3.101562 C 92.21875 3.402344 90.777344 4.523438 91.496094 6.304688 C 92.003906 7.566406 95.464844 10.292969 97.183594 12.023438 C 97.230469 12.070312 97.308594 12.070312 97.359375 12.019531 C 97.410156 11.972656 97.410156 11.894531 97.359375 11.84375 C 95.738281 10.160156 94.429688 8.804688 93.894531 8.261719 C 93.082031 7.4375 92.441406 6.792969 92.21875 6.203125 C 92.039062 5.734375 92.1875 5.3125 92.757812 4.851562 C 92.859375 4.769531 93.03125 4.6875 93.273438 4.628906 C 93.613281 4.550781 94.171875 4.5 94.875 4.425781 C 97.070312 4.195312 100.546875 4.089844 104.027344 4.089844 C 107.507812 4.085938 110.988281 4.1875 113.183594 4.421875 C 113.886719 4.496094 114.445312 4.546875 114.789062 4.628906 C 115.027344 4.6875 115.195312 4.773438 115.296875 4.855469 C 115.863281 5.316406 116.003906 5.734375 115.824219 6.199219 C 115.597656 6.789062 114.953125 7.425781 114.140625 8.242188 C 112.734375 9.65625 111.367188 11.261719 110.679688 12.085938 " fill-opacity="1" fill-rule="evenodd"/></g><g clip-path="url(#id2)"><g fill="#000000" fill-opacity="1"><g transform="translate(2.132046, 57.839838)"><g><path d="M 14.945312 -13.332031 C 11.792969 -15.457031 9.449219 -16.773438 7.546875 -18.019531 C 6.886719 -18.386719 6.667969 -18.535156 6.667969 -18.535156 C 6.667969 -18.535156 7.546875 -18.019531 7.546875 -18.019531 C 6.738281 -18.460938 5.785156 -19.191406 5.714844 -20.144531 C 5.640625 -20.949219 6.300781 -21.902344 8.351562 -21.902344 C 13.113281 -21.757812 16.117188 -16.628906 17.507812 -13.332031 L 18.386719 -13.40625 L 18.3125 -23.808594 L 15.75 -23.878906 L 15.164062 -23.292969 C 14.503906 -23.585938 12.746094 -24.539062 9.375 -24.761719 C 4.542969 -24.761719 -1.320312 -23.585938 -1.464844 -17.582031 C -1.539062 -13.992188 1.464844 -11.941406 2.929688 -10.988281 C 4.394531 -10.109375 9.449219 -7.03125 10.402344 -6.375 C 11.355469 -5.785156 12.085938 -5.199219 12.160156 -4.25 C 12.234375 -3.441406 11.648438 -2.492188 9.816406 -2.492188 C 5.128906 -2.492188 2.050781 -7.105469 0.367188 -10.988281 L -0.511719 -10.988281 L -0.441406 -0.585938 L 2.125 -0.511719 L 2.710938 -1.097656 C 4.980469 -0.0742188 7.253906 0.441406 9.742188 0.441406 C 14.503906 0.441406 19.191406 -1.613281 19.339844 -6.738281 C 19.414062 -10.402344 17.359375 -11.792969 14.945312 -13.332031 Z M 14.945312 -13.332031 "/></g></g></g></g><g fill="#000000" fill-opacity="1"><g transform="translate(21.906837, 57.839838)"><g><path d="M 25.710938 -2.269531 C 24.539062 -2.492188 24.320312 -4.6875 24.320312 -10.183594 C 24.320312 -10.328125 24.320312 -10.546875 24.320312 -10.914062 C 24.394531 -14.136719 24.539062 -19.925781 24.539062 -22.414062 C 24.539062 -23.292969 24.761719 -24.980469 23.515625 -24.980469 C 23.367188 -24.980469 23.148438 -24.980469 22.929688 -24.90625 C 21.097656 -24.320312 18.242188 -22.855469 14.066406 -22.855469 C 13.773438 -22.855469 13.550781 -22.636719 13.550781 -22.34375 L 13.550781 -21.535156 C 13.550781 -21.390625 13.699219 -21.242188 13.84375 -21.242188 C 14.871094 -21.242188 15.824219 -20.4375 15.824219 -18.972656 L 15.824219 -8.496094 C 15.675781 -6.667969 14.796875 -4.320312 12.527344 -4.320312 C 9.742188 -4.320312 9.449219 -7.253906 9.449219 -9.449219 C 9.449219 -9.449219 9.449219 -20.585938 9.449219 -21.828125 C 9.449219 -22.707031 9.667969 -24.394531 8.496094 -24.394531 C 8.351562 -24.394531 8.132812 -24.394531 7.910156 -24.320312 C 6.082031 -23.734375 3.222656 -22.269531 -1.027344 -22.269531 C -1.246094 -22.269531 -1.464844 -22.050781 -1.464844 -21.828125 L -1.464844 -20.949219 C -1.464844 -20.804688 -1.320312 -20.730469 -1.171875 -20.730469 C -0.148438 -20.730469 0.878906 -20 0.878906 -18.460938 C 0.878906 -18.460938 0.878906 -8.425781 0.878906 -8.058594 C 0.878906 -2.855469 4.25 0.585938 9.449219 0.585938 C 11.5 0.511719 14.652344 -0.0742188 16.554688 -3.003906 C 17.582031 -0.953125 19.558594 0 21.535156 0 C 23.441406 0 25.566406 -0.953125 25.859375 -1.976562 C 25.859375 -2.050781 25.859375 -2.199219 25.710938 -2.269531 Z M 25.710938 -2.269531 "/></g></g></g><g fill="#000000" fill-opacity="1"><g transform="translate(48.932553, 57.839838)"><g><path d="M 14.503906 -24.6875 C 13.039062 -24.6875 11.28125 -24.027344 10.035156 -23.222656 C 10.035156 -24.027344 9.890625 -24.90625 9.011719 -24.90625 C 8.863281 -24.90625 8.644531 -24.90625 8.425781 -24.832031 C 6.59375 -24.246094 3.734375 -22.78125 -0.511719 -22.78125 C -0.734375 -22.78125 -0.953125 -22.5625 -0.953125 -22.34375 L -0.953125 -21.464844 C -0.953125 -21.316406 -0.804688 -21.242188 -0.660156 -21.242188 C 0.367188 -21.242188 1.390625 -20.511719 1.390625 -18.972656 L 1.390625 6.007812 C 1.390625 10.109375 -0.953125 9.960938 -0.953125 10.476562 L -0.878906 10.769531 C -0.878906 10.914062 -0.804688 10.988281 -0.660156 10.988281 L 12.015625 10.988281 C 12.160156 10.988281 12.308594 10.914062 12.308594 10.769531 L 12.308594 10.476562 C 12.308594 9.960938 9.960938 10.183594 9.960938 5.492188 C 9.960938 5.421875 9.960938 2.785156 9.960938 -0.878906 C 11.5 0.0742188 12.746094 0.511719 14.578125 0.511719 C 22.34375 0.511719 25.933594 -5.714844 26.078125 -11.867188 C 26.226562 -16.847656 23.878906 -24.832031 14.503906 -24.6875 Z M 16.703125 -12.085938 C 16.628906 -6.960938 14.796875 -3.148438 12.820312 -3.148438 C 10.769531 -3.222656 9.890625 -6.960938 10.035156 -12.085938 C 10.183594 -17.214844 11.207031 -21.097656 13.1875 -21.023438 C 15.238281 -20.949219 16.847656 -17.214844 16.703125 -12.085938 Z M 16.703125 -12.085938 "/></g></g></g><g fill="#000000" fill-opacity="1"><g transform="translate(75.445581, 57.839838)"><g><path d="M 10.695312 -24.6875 C 3.515625 -24.6875 -1.464844 -19.191406 -1.464844 -12.160156 C -1.464844 -4.394531 3.664062 0.441406 11.355469 0.441406 C 16.261719 0.441406 21.464844 -2.710938 22.121094 -7.910156 C 22.195312 -8.570312 22.195312 -9.597656 20.878906 -9.890625 C 20.65625 -9.960938 20.511719 -9.960938 20.363281 -9.960938 C 19.339844 -9.960938 18.679688 -9.230469 18.460938 -8.496094 C 17.582031 -5.933594 15.238281 -5.128906 13.84375 -5.054688 C 10.988281 -4.980469 8.644531 -7.398438 8.203125 -11.941406 C 8.203125 -12.015625 8.203125 -12.015625 8.203125 -12.085938 L 21.609375 -12.160156 C 21.757812 -12.160156 21.828125 -12.160156 21.902344 -12.160156 C 22.269531 -12.160156 22.5625 -12.234375 22.5625 -12.601562 C 22.5625 -19.707031 17.875 -24.6875 10.695312 -24.6875 Z M 11.0625 -21.609375 C 12.671875 -21.609375 14.066406 -19.121094 13.992188 -15.089844 L 8.132812 -15.089844 C 8.351562 -18.828125 9.597656 -21.609375 11.0625 -21.609375 Z M 11.0625 -21.609375 "/></g></g></g><g fill="#000000" fill-opacity="1"><g transform="translate(99.175431, 57.839838)"><g><path d="M 0 -21.242188 C 0 -21.097656 0.148438 -20.949219 0.292969 -20.949219 C 1.320312 -20.949219 2.34375 -20.292969 2.34375 -18.753906 L 2.34375 -5.054688 C 2.34375 -0.953125 0 -1.097656 0 -0.585938 L 0.0742188 -0.21875 C 0.0742188 -0.148438 0.148438 0 0.292969 0 L 12.964844 0 C 13.113281 0 13.257812 -0.148438 13.257812 -0.292969 L 13.257812 -0.585938 C 13.257812 -1.097656 10.914062 -0.878906 10.914062 -5.566406 L 10.914062 -14.945312 C 11.0625 -16.921875 12.308594 -20.363281 14.722656 -20.363281 C 15.308594 -20.363281 15.824219 -20.070312 16.117188 -19.707031 C 16.554688 -19.191406 16.703125 -18.460938 16.628906 -17.949219 C 16.554688 -16.921875 16.042969 -16.261719 15.238281 -16.1875 C 15.089844 -16.117188 15.015625 -16.042969 15.015625 -15.894531 C 15.238281 -14.652344 16.996094 -12.820312 19.632812 -12.820312 C 24.027344 -12.894531 24.761719 -16.703125 24.6875 -17.800781 C 24.6875 -22.78125 21.242188 -24.6875 16.703125 -24.6875 C 14.359375 -24.539062 12.308594 -23.441406 10.914062 -21.828125 L 10.914062 -22.121094 C 10.914062 -23 11.132812 -24.6875 9.960938 -24.6875 C 9.816406 -24.6875 9.597656 -24.6875 9.375 -24.613281 C 7.546875 -24.027344 4.6875 -22.5625 0.441406 -22.5625 C 0.21875 -22.5625 0 -22.34375 0 -22.050781 Z M 0 -21.242188 "/></g></g></g><g fill="#000000" fill-opacity="1"><g transform="translate(123.56445, 57.839838)"><g><path d="M 14.945312 -13.332031 C 11.792969 -15.457031 9.449219 -16.773438 7.546875 -18.019531 C 6.886719 -18.386719 6.667969 -18.535156 6.667969 -18.535156 C 6.667969 -18.535156 7.546875 -18.019531 7.546875 -18.019531 C 6.738281 -18.460938 5.785156 -19.191406 5.714844 -20.144531 C 5.640625 -20.949219 6.300781 -21.902344 8.351562 -21.902344 C 13.113281 -21.757812 16.117188 -16.628906 17.507812 -13.332031 L 18.386719 -13.40625 L 18.3125 -23.808594 L 15.75 -23.878906 L 15.164062 -23.292969 C 14.503906 -23.585938 12.746094 -24.539062 9.375 -24.761719 C 4.542969 -24.761719 -1.320312 -23.585938 -1.464844 -17.582031 C -1.539062 -13.992188 1.464844 -11.941406 2.929688 -10.988281 C 4.394531 -10.109375 9.449219 -7.03125 10.402344 -6.375 C 11.355469 -5.785156 12.085938 -5.199219 12.160156 -4.25 C 12.234375 -3.441406 11.648438 -2.492188 9.816406 -2.492188 C 5.128906 -2.492188 2.050781 -7.105469 0.367188 -10.988281 L -0.511719 -10.988281 L -0.441406 -0.585938 L 2.125 -0.511719 L 2.710938 -1.097656 C 4.980469 -0.0742188 7.253906 0.441406 9.742188 0.441406 C 14.503906 0.441406 19.191406 -1.613281 19.339844 -6.738281 C 19.414062 -10.402344 17.359375 -11.792969 14.945312 -13.332031 Z M 14.945312 -13.332031 "/></g></g></g><g fill="#000000" fill-opacity="1"><g transform="translate(143.339241, 57.839838)"><g><path d="M -1.464844 -20.292969 C -1.464844 -20 -1.246094 -19.707031 -1.027344 -19.707031 L 2.34375 -19.707031 L 2.34375 -6.152344 C 2.34375 -1.90625 5.199219 0 8.496094 0 C 13.699219 0 15.601562 -3.441406 15.894531 -5.199219 C 15.96875 -5.492188 15.75 -5.714844 15.53125 -5.714844 C 15.457031 -5.714844 15.382812 -5.640625 15.308594 -5.566406 C 14.796875 -4.980469 13.625 -3.957031 12.527344 -3.957031 C 11.5 -4.027344 10.546875 -5.128906 10.769531 -10.183594 C 10.839844 -10.253906 10.839844 -14.871094 10.914062 -19.707031 L 15.894531 -19.707031 C 16.1875 -19.707031 16.335938 -20 16.335938 -20.292969 L 16.335938 -22.195312 C 16.335938 -22.488281 16.1875 -22.78125 15.894531 -22.78125 L 10.914062 -22.707031 L 10.914062 -31.132812 C 10.914062 -31.792969 10.328125 -32.085938 9.523438 -32.085938 C 7.910156 -32.085938 5.347656 -30.839844 4.835938 -28.496094 C 4.25 -26.152344 3.664062 -23.660156 -1.097656 -23 C -1.320312 -23 -1.464844 -22.707031 -1.464844 -22.414062 Z M -1.464844 -20.292969 "/></g></g></g><g fill="#000000" fill-opacity="1"><g transform="translate(160.84352, 57.839838)"><g><path d="M 22.121094 -2.125 C 20.65625 -2.636719 20.804688 -7.398438 21.023438 -12.015625 C 21.097656 -13.039062 21.097656 -14.136719 21.171875 -15.164062 C 21.242188 -17.949219 20.511719 -20.144531 18.972656 -21.757812 C 16.773438 -24.027344 13.332031 -24.761719 10.253906 -24.761719 C 6.519531 -24.761719 0.804688 -23.222656 0.441406 -18.828125 C 0.367188 -17.875 0.660156 -16.996094 1.320312 -16.261719 C 2.199219 -15.238281 3.515625 -14.871094 4.835938 -14.871094 C 7.253906 -14.871094 8.789062 -16.410156 9.011719 -17.507812 C 9.011719 -17.652344 8.9375 -17.800781 8.789062 -17.800781 C 8.132812 -17.949219 7.617188 -18.535156 7.546875 -19.414062 C 7.546875 -19.851562 7.691406 -20.363281 8.132812 -20.804688 C 8.570312 -21.390625 9.304688 -21.683594 10.035156 -21.683594 C 10.839844 -21.683594 11.425781 -21.464844 11.867188 -21.023438 C 12.308594 -20.511719 12.527344 -19.777344 12.453125 -18.972656 C 12.234375 -16.847656 9.667969 -15.457031 7.398438 -14.503906 C 7.03125 -14.359375 6.667969 -14.210938 6.375 -14.066406 C 1.539062 -12.015625 -1.246094 -10.328125 -1.464844 -6.445312 C -1.683594 -2.125 2.125 0.292969 6.007812 0.441406 C 7.984375 0.441406 11.132812 -0.660156 12.015625 -2.636719 C 12.085938 -2.785156 12.085938 -3.003906 11.941406 -3.148438 C 11.867188 -3.222656 11.71875 -3.296875 11.5 -3.296875 C 11.5 -3.296875 11.425781 -3.296875 11.355469 -3.296875 C 10.988281 -3.222656 10.621094 -3.148438 10.328125 -3.148438 C 10.109375 -3.148438 9.960938 -3.222656 9.816406 -3.222656 C 8.644531 -3.589844 7.546875 -4.542969 7.546875 -6.886719 C 7.546875 -9.890625 9.816406 -11.71875 11.5 -12.964844 C 11.867188 -13.257812 12.234375 -13.550781 12.453125 -13.773438 L 12.453125 -6.007812 C 12.453125 -1.832031 15.382812 0.148438 18.09375 0.148438 C 20.070312 0.148438 21.976562 -0.804688 22.269531 -1.832031 C 22.269531 -1.976562 22.195312 -2.125 22.121094 -2.125 Z M 22.121094 -2.125 "/></g></g></g><g fill="#000000" fill-opacity="1"><g transform="translate(184.280387, 57.839838)"><g><path d="M -1.464844 -20.292969 C -1.464844 -20 -1.246094 -19.707031 -1.027344 -19.707031 L 2.34375 -19.707031 L 2.34375 -6.152344 C 2.34375 -1.90625 5.199219 0 8.496094 0 C 13.699219 0 15.601562 -3.441406 15.894531 -5.199219 C 15.96875 -5.492188 15.75 -5.714844 15.53125 -5.714844 C 15.457031 -5.714844 15.382812 -5.640625 15.308594 -5.566406 C 14.796875 -4.980469 13.625 -3.957031 12.527344 -3.957031 C 11.5 -4.027344 10.546875 -5.128906 10.769531 -10.183594 C 10.839844 -10.253906 10.839844 -14.871094 10.914062 -19.707031 L 15.894531 -19.707031 C 16.1875 -19.707031 16.335938 -20 16.335938 -20.292969 L 16.335938 -22.195312 C 16.335938 -22.488281 16.1875 -22.78125 15.894531 -22.78125 L 10.914062 -22.707031 L 10.914062 -31.132812 C 10.914062 -31.792969 10.328125 -32.085938 9.523438 -32.085938 C 7.910156 -32.085938 5.347656 -30.839844 4.835938 -28.496094 C 4.25 -26.152344 3.664062 -23.660156 -1.097656 -23 C -1.320312 -23 -1.464844 -22.707031 -1.464844 -22.414062 Z M -1.464844 -20.292969 "/></g></g></g><g clip-path="url(#id3)"><g fill="#000000" fill-opacity="1"><g transform="translate(201.784666, 57.839838)"><g><path d="M 10.695312 -24.6875 C 3.515625 -24.6875 -1.464844 -19.191406 -1.464844 -12.160156 C -1.464844 -4.394531 3.664062 0.441406 11.355469 0.441406 C 16.261719 0.441406 21.464844 -2.710938 22.121094 -7.910156 C 22.195312 -8.570312 22.195312 -9.597656 20.878906 -9.890625 C 20.65625 -9.960938 20.511719 -9.960938 20.363281 -9.960938 C 19.339844 -9.960938 18.679688 -9.230469 18.460938 -8.496094 C 17.582031 -5.933594 15.238281 -5.128906 13.84375 -5.054688 C 10.988281 -4.980469 8.644531 -7.398438 8.203125 -11.941406 C 8.203125 -12.015625 8.203125 -12.015625 8.203125 -12.085938 L 21.609375 -12.160156 C 21.757812 -12.160156 21.828125 -12.160156 21.902344 -12.160156 C 22.269531 -12.160156 22.5625 -12.234375 22.5625 -12.601562 C 22.5625 -19.707031 17.875 -24.6875 10.695312 -24.6875 Z M 11.0625 -21.609375 C 12.671875 -21.609375 14.066406 -19.121094 13.992188 -15.089844 L 8.132812 -15.089844 C 8.351562 -18.828125 9.597656 -21.609375 11.0625 -21.609375 Z M 11.0625 -21.609375 "/></g></g></g></g></svg>